#N canvas 90 23 832 751 10;
#X obj -12 27 inlet~ audioin;
#X obj 102 27 inlet start/stop recording;
#X obj 272 27 inlet start/stop playback;
#X obj 14 116 bng 30 250 50 0 empty empty rec/stop -10 38 0 10 -262144
-1 -1;
#X obj 74 116 bng 30 250 50 0 empty empty play/stop -10 38 0 10 -262144
-1 -1;
#X obj -16 225 s \$0-rec;
#X obj 102 48 s \$0-rec;
#X obj 272 48 s \$0-play;
#X obj 56 225 s \$0-play;
#X text 2 100 input~;
#X text 56 99 rec;
#X text 92 99 play;
#X obj -12 48 throw~ \$0-audioin;
#X floatatom 8 165 5 0 0 1 bpm - -;
#X floatatom 8 185 5 0 0 1 bars - -;
#X obj 73 165 vradio 15 1 0 2 empty empty empty 0 -8 0 10 -262144 -1
-1 0;
#X text 90 164 manual;
#X text 90 179 auto;
#X obj -16 245 s \$0-bpm;
#X obj -16 265 s \$0-bars;
#X obj 56 245 s \$0-mode;
#X obj 14 77 r \$0-autostop;
#X obj 141 458 cnv 15 440 260 empty empty empty 20 12 0 14 -233017
-66577 0;
#X obj 302 654 tabread4~ \$0-loop;
#X floatatom 302 501 10 0 0 0 - - -;
#X obj 302 590 phasor~;
#X obj 302 631 *~;
#X obj 302 674 *~ 0.1;
#X obj 302 481 expr 44100 / $f1;
#X obj 386 520 r \$0-stopplay;
#X obj 445 598 metro 100;
#X obj 445 580 tgl 15 0 empty empty empty 17 7 0 10 -262144 -1 -1 0
1;
#X obj 445 621 snapshot~;
#X floatatom 445 642 10 0 0 0 - - -;
#X obj 448 689 hsl 128 15 0 1 0 0 empty empty empty -2 -8 0 10 -262144
-1 -1 0 1;
#X obj 445 667 /;
#X msg 478 667 441000;
#X obj 145 572 counter;
#X floatatom 145 593 10 0 0 0 - - -;
#X obj 145 554 bng 15 250 50 0 empty empty empty 17 7 0 10 -262144
-1 -1;
#X obj 145 613 mod 2;
#X floatatom 145 634 5 0 0 0 - - -;
#X obj 145 655 sel 0 1;
#X obj 164 554 bng 15 250 50 0 empty empty empty 17 7 0 10 -262144
-1 -1;
#X obj 145 531 r \$0-play;
#X obj 164 675 s \$0-startplay;
#X obj 145 695 s \$0-stopplay;
#X obj 386 501 r \$0-startplay;
#X text 153 458 playback:;
#X obj 184 552 s \$0-restartloop;
#X obj 302 695 throw~ \$0-audioout;
#X obj 302 460 r \$0-loopsize;
#X obj 317 611 r \$0-loopsize;
#X obj 302 552 spigot;
#X msg 335 530 1;
#X msg 386 541 0;
#X obj 479 499 loadbang;
#X obj 479 520 delay 1;
#X obj 141 100 cnv 15 190 123 empty empty empty 20 12 0 14 -233017
-66577 0;
#X obj 149 123 loadbang;
#X msg 149 163 resize \$1;
#X obj 149 183 s \$0-loop;
#X msg 149 143 441000;
#X obj 149 204 table \$0-loop;
#X text 193 143 10 sec;
#X text 147 101 Initialize loop array:;
#X msg 236 161 \; \$1 const 0;
#X obj 236 141 symbol \$0-loop;
#X obj 236 121 r \$0-resetloop;
#X obj 335 100 cnv 15 90 95 empty empty empty 20 12 0 14 -233017 -66577
0;
#X obj 339 116 r \$0-loopsize;
#X floatatom 339 136 10 0 0 0 - - -;
#X msg 339 155 resize \$1;
#X obj 339 175 s \$0-loop;
#X text 338 98 Resize loop:;
#X obj 141 232 cnv 15 550 218 empty empty empty 20 12 0 14 -233017
-66577 0;
#X obj 148 294 counter;
#X floatatom 148 315 10 0 0 0 - - -;
#X obj 147 336 bng 15 250 50 0 empty empty empty 17 7 0 10 -262144
-1 -1;
#X obj 148 335 mod 2;
#X floatatom 148 356 5 0 0 0 - - -;
#X obj 148 377 sel 0 1;
#X obj 167 276 bng 15 250 50 0 empty empty empty 17 7 0 10 -262144
-1 -1;
#X obj 148 253 r \$0-rec;
#X obj 167 398 s \$0-startrec;
#X obj 148 418 s \$0-stoprec;
#X text 145 229 recording:;
#X msg 260 271 start;
#X msg 287 313 stop;
#X obj 260 354 timer;
#X obj 260 335 bng 15 250 50 0 empty empty empty 17 7 0 10 -262144
-1 -1;
#X obj 287 335 bng 15 250 50 0 empty empty empty 17 7 0 10 -262144
-1 -1;
#X floatatom 260 375 5 0 0 0 - - -;
#X obj 260 415 s \$0-loopsize;
#X obj 260 251 r \$0-startrec;
#X obj 287 292 r \$0-stoprec;
#X obj 260 394 * 44.1;
#X obj 438 274 r \$0-bpm;
#X obj 438 295 expr 60/ $f1;
#X obj 438 316 * 4;
#X text 463 316 4 beats;
#X obj 445 336 r \$0-bars;
#X obj 445 356 t b f;
#X obj 438 376 *;
#X text 433 240 Automatic loopsize:;
#X text 434 255 Compute time with bpm and number of bars;
#X obj 438 396 * 44100;
#X obj 438 417 s \$0-loopsize;
#X obj 553 274 r \$0-startrec;
#X obj 553 295 bng 15 250 50 0 empty empty empty 17 7 0 10 -262144
-1 -1;
#X obj 586 294 r \$0-mode;
#X obj 553 398 s \$0-autostop;
#X obj 553 377 delay;
#X obj 553 315 spigot;
#X obj 580 336 r \$0-loopsize;
#X obj 580 356 / 44.1;
#X text 261 233 Manual loopsize:;
#X obj 310 338 cnv 15 115 60 empty empty empty 20 12 0 14 -262130 -66577
0;
#X obj 313 374 tabwrite~ \$0-loop;
#X obj 317 354 catch~ \$0-audioin;
#X text 320 337 Recording;
#X text 552 414 send to rec bang;
#X text 259 432 send duration of loop in samples;
#X obj 430 149 cnv 15 118 55 empty empty empty 20 12 0 14 -233017 -66577
0;
#X obj 433 185 outlet~;
#X obj 433 165 catch~ \$0-audioout;
#X text 433 148 output:;
#X text 430 22 Recording manual mode \; Recording and playback are
triggered by bangs \; To record \, press once the left bang \; press
it again to stop recording \;;
#X text 430 76 Recording automatic mode \; set bpm and bars for the
duration of loop \; then press once the left bang to start recording
\; Playback \; press once right bang to play \, again to stop.;
#X connect 0 0 12 0;
#X connect 1 0 6 0;
#X connect 2 0 7 0;
#X connect 3 0 5 0;
#X connect 4 0 8 0;
#X connect 13 0 18 0;
#X connect 14 0 19 0;
#X connect 15 0 20 0;
#X connect 21 0 3 0;
#X connect 23 0 27 0;
#X connect 24 0 53 0;
#X connect 25 0 26 0;
#X connect 26 0 23 0;
#X connect 27 0 50 0;
#X connect 28 0 24 0;
#X connect 29 0 55 0;
#X connect 30 0 32 0;
#X connect 31 0 30 0;
#X connect 32 0 33 0;
#X connect 33 0 35 0;
#X connect 35 0 34 0;
#X connect 36 0 35 1;
#X connect 37 0 38 0;
#X connect 38 0 40 0;
#X connect 39 0 37 0;
#X connect 40 0 41 0;
#X connect 41 0 42 0;
#X connect 42 0 46 0;
#X connect 42 1 45 0;
#X connect 43 0 37 2;
#X connect 44 0 39 0;
#X connect 44 0 49 0;
#X connect 47 0 54 0;
#X connect 47 0 24 0;
#X connect 51 0 28 0;
#X connect 52 0 26 1;
#X connect 53 0 25 0;
#X connect 54 0 53 1;
#X connect 55 0 53 1;
#X connect 55 0 25 0;
#X connect 56 0 57 0;
#X connect 57 0 55 0;
#X connect 59 0 62 0;
#X connect 60 0 61 0;
#X connect 62 0 60 0;
#X connect 67 0 66 0;
#X connect 68 0 67 0;
#X connect 68 0 62 0;
#X connect 70 0 71 0;
#X connect 71 0 72 0;
#X connect 72 0 73 0;
#X connect 76 0 77 0;
#X connect 77 0 79 0;
#X connect 78 0 76 0;
#X connect 79 0 80 0;
#X connect 80 0 81 0;
#X connect 81 0 85 0;
#X connect 81 1 84 0;
#X connect 82 0 76 2;
#X connect 83 0 78 0;
#X connect 87 0 90 0;
#X connect 87 0 118 0;
#X connect 88 0 91 0;
#X connect 89 0 92 0;
#X connect 90 0 89 0;
#X connect 91 0 89 1;
#X connect 92 0 96 0;
#X connect 94 0 87 0;
#X connect 95 0 88 0;
#X connect 96 0 93 0;
#X connect 97 0 98 0;
#X connect 98 0 99 0;
#X connect 99 0 103 0;
#X connect 101 0 102 0;
#X connect 102 0 103 0;
#X connect 102 1 103 1;
#X connect 103 0 106 0;
#X connect 106 0 107 0;
#X connect 108 0 109 0;
#X connect 109 0 113 0;
#X connect 110 0 113 1;
#X connect 112 0 111 0;
#X connect 113 0 112 0;
#X connect 114 0 115 0;
#X connect 115 0 112 1;
#X connect 119 0 118 0;
#X connect 125 0 124 0;
#X coords 0 -1 1 1 130 105 2 0 100;
