#N canvas 33 24 1020 578 10;
#X obj 525 317 tabwrite~ \$0-loop;
#X obj 759 394 tabread4~ \$0-loop;
#X obj 252 17 inlet bar;
#X obj 486 17 inlet beat;
#X obj 536 255 delay 1;
#X obj 486 148 spigot;
#X obj 486 169 % 4;
#X obj 486 189 moses 1;
#X obj 525 210 moses 2;
#X obj 525 231 bng 15 250 50 0 empty empty empty 17 7 0 10 -262144
-1 -1;
#X floatatom 252 39 5 0 0 0 - - -;
#X floatatom 486 39 5 0 0 0 - - -;
#X obj 336 174 spigot;
#X obj 336 196 int;
#X floatatom 336 217 5 0 0 0 - - -;
#X obj 336 256 + 4;
#X obj 336 284 % 4;
#X floatatom 336 305 5 0 0 0 - - -;
#X obj 252 345 select;
#X obj 252 194 % 4;
#X floatatom 759 226 10 0 0 0 - - -;
#X obj 759 330 phasor~;
#X obj 759 371 *~;
#X obj 774 351 r \$0-loopsize;
#X obj 221 484 s \$0-loopsize;
#X obj 759 183 r \$0-loopsize;
#X msg 798 309 0;
#X obj 759 414 *~ 0.1;
#X msg 765 309 0;
#X obj 759 204 expr 44100 / $f1;
#X floatatom 252 216 5 0 0 0 - - -;
#X obj 252 366 bng 15 250 50 0 empty empty empty 17 7 0 10 -262144
-1 -1;
#X obj 741 206 bng 15 250 50 0 empty empty empty 17 7 0 10 -262144
-1 -1;
#X obj 774 74 tgl 15 0 empty empty empty 17 7 0 10 -262144 -1 -1 0
1;
#X obj 260 237 s \$0-toplay;
#X obj 741 92 r \$0-toplay;
#X obj 741 112 spigot;
#X obj 753 136 delay 1;
#X obj 221 444 loadbang;
#X obj 765 247 loadbang;
#X obj 765 268 delay 1;
#X obj 759 435 outlet~;
#X obj 252 384 s \$0-restartloop;
#X obj 798 288 r \$0-restartloop;
#X obj 366 238 r \$0-ml;
#X obj 267 173 r \$0-ml;
#X msg 153 484 resize \$1;
#X obj 153 504 s \$0-loop;
#X msg 221 464 441000;
#X obj 221 505 table \$0-loop;
#X text 265 465 10 sec;
#X obj 531 297 catch~ audioin;
#X obj 147 19 inlet~ audioin;
#X obj 147 40 throw~ audioin;
#X text 539 188 Start recording when beat is 1;
#X obj 519 127 r \$0-startrec;
#X obj 369 152 r \$0-startrec;
#X text 156 424 Initialize loop array:;
#X floatatom 105 178 3 0 0 0 - - -;
#X text 128 178 Loop length (bars);
#X obj 105 124 bng 15 250 50 0 empty empty empty 17 7 0 10 -262144
-1 -1;
#X obj 105 160 bng 15 250 50 0 empty empty empty 17 7 0 10 -262144
-1 -1;
#X text 125 159 STOP;
#X obj 105 142 bng 15 250 50 0 empty empty empty 17 7 0 10 -262144
-1 -1;
#X text 125 141 START Play;
#X text 125 123 REC;
#X obj 105 265 s \$0-ml;
#X text 99 282 measure length;
#X obj 14 150 tgl 15 0 empty empty empty 17 7 0 10 -262144 -1 -1 0
1;
#X obj 14 348 s \$0-startrec;
#X obj 536 275 s \$0-startrecgate;
#X obj 14 68 r \$0-startrecgate;
#X obj 753 157 s \$0-startplaygate;
#X obj 782 54 r \$0-startplaygate;
#X obj 36 321 s \$0-startplay;
#X obj 58 302 s \$0-stopplay;
#X obj 814 268 r \$0-stopplay;
#X obj 774 14 r \$0-startplay;
#X text 101 101 audio;
#X text 158 102 bar;
#X text 212 101 beat;
#X obj 796 34 s \$0-restartloop;
#X obj 555 424 metro 100;
#X obj 555 406 tgl 15 0 empty empty empty 17 7 0 10 -262144 -1 -1 1
1;
#X obj 555 447 snapshot~;
#X floatatom 555 468 10 0 0 0 - - -;
#X obj 558 515 hsl 128 15 0 1 0 0 empty empty empty -2 -8 0 10 -262144
-1 -1 0 1;
#X obj 555 493 /;
#X msg 588 493 441000;
#X text 12 542 Based on Recursion looper by Jordan Colburn: http://jordancolburn.com/2009/04/27/recursion-looper/
;
#X connect 1 0 27 0;
#X connect 2 0 10 0;
#X connect 3 0 11 0;
#X connect 4 0 70 0;
#X connect 5 0 6 0;
#X connect 6 0 7 0;
#X connect 7 1 8 0;
#X connect 8 0 9 0;
#X connect 9 0 4 0;
#X connect 9 0 0 0;
#X connect 10 0 12 0;
#X connect 10 0 19 0;
#X connect 11 0 5 0;
#X connect 12 0 13 0;
#X connect 13 0 14 0;
#X connect 14 0 15 0;
#X connect 15 0 16 0;
#X connect 16 0 17 0;
#X connect 17 0 18 1;
#X connect 18 0 31 0;
#X connect 19 0 30 0;
#X connect 20 0 21 0;
#X connect 21 0 22 0;
#X connect 22 0 1 0;
#X connect 23 0 22 1;
#X connect 25 0 29 0;
#X connect 26 0 21 1;
#X connect 27 0 41 0;
#X connect 28 0 21 0;
#X connect 29 0 20 0;
#X connect 30 0 18 0;
#X connect 30 0 34 0;
#X connect 31 0 42 0;
#X connect 32 0 20 0;
#X connect 33 0 36 1;
#X connect 35 0 36 0;
#X connect 36 0 32 0;
#X connect 36 0 37 0;
#X connect 37 0 72 0;
#X connect 38 0 48 0;
#X connect 39 0 40 0;
#X connect 40 0 28 0;
#X connect 43 0 26 0;
#X connect 44 0 16 1;
#X connect 44 0 15 1;
#X connect 45 0 19 1;
#X connect 46 0 47 0;
#X connect 48 0 24 0;
#X connect 48 0 46 0;
#X connect 51 0 0 0;
#X connect 52 0 53 0;
#X connect 55 0 5 1;
#X connect 56 0 12 1;
#X connect 58 0 66 0;
#X connect 60 0 68 0;
#X connect 61 0 75 0;
#X connect 63 0 74 0;
#X connect 68 0 69 0;
#X connect 71 0 68 0;
#X connect 73 0 33 0;
#X connect 76 0 28 0;
#X connect 77 0 33 0;
#X connect 77 0 81 0;
#X connect 82 0 84 0;
#X connect 83 0 82 0;
#X connect 84 0 85 0;
#X connect 85 0 87 0;
#X connect 87 0 86 0;
#X connect 88 0 87 1;
#X coords 0 -1 1 1 145 100 2 100 100;
