#N canvas 273 23 832 751 10;
#X obj -12 27 inlet~ audioin;
#X obj 102 27 inlet start/stop recording;
#X obj 50 156 bng 30 250 50 0 empty empty rec/stop -10 38 0 10 -262144
-1 -1;
#X obj 30 225 s \$0-rec;
#X obj 102 48 s \$0-rec;
#X text 2 100 input~;
#X text 56 99 rec;
#X obj -12 48 throw~ \$0-audioin;
#X obj 141 458 cnv 15 440 260 empty empty empty 20 12 0 14 -233017
-66577 0;
#X obj 302 654 tabread4~ \$0-loop;
#X floatatom 302 501 10 0 0 0 - - -;
#X obj 302 590 phasor~;
#X obj 302 631 *~;
#X obj 302 481 expr 44100 / $f1;
#X obj 386 520 r \$0-stopplay;
#X obj 445 598 metro 100;
#X obj 445 580 tgl 15 0 empty empty empty 17 7 0 10 -262144 -1 -1 0
1;
#X obj 445 621 snapshot~;
#X floatatom 445 642 10 0 0 0 - - -;
#X obj 448 689 hsl 128 15 0 1 0 0 empty empty empty -2 -8 0 10 -262144
-1 -1 0 1;
#X obj 445 667 /;
#X msg 478 667 441000;
#X obj 386 501 r \$0-startplay;
#X text 153 458 playback:;
#X obj 302 460 r \$0-loopsize;
#X obj 317 611 r \$0-loopsize;
#X obj 302 552 spigot;
#X msg 335 530 1;
#X msg 386 541 0;
#X obj 479 499 loadbang;
#X obj 479 520 delay 1;
#X obj 141 100 cnv 15 190 123 empty empty empty 20 12 0 14 -233017
-66577 0;
#X obj 149 123 loadbang;
#X msg 149 163 resize \$1;
#X obj 149 183 s \$0-loop;
#X msg 149 143 441000;
#X obj 149 204 table \$0-loop;
#X text 193 143 10 sec;
#X text 147 101 Initialize loop array:;
#X msg 236 161 \; \$1 const 0;
#X obj 236 141 symbol \$0-loop;
#X obj 335 100 cnv 15 90 95 empty empty empty 20 12 0 14 -233017 -66577
0;
#X obj 339 116 r \$0-loopsize;
#X floatatom 339 136 10 0 0 0 - - -;
#X msg 339 155 resize \$1;
#X obj 339 175 s \$0-loop;
#X text 338 98 Resize loop:;
#X obj 141 232 cnv 15 550 218 empty empty empty 20 12 0 14 -233017
-66577 0;
#X text 145 229 recording:;
#X msg 260 271 start;
#X obj 260 354 timer;
#X obj 260 335 bng 15 250 50 0 empty empty empty 17 7 0 10 -262144
-1 -1;
#X obj 287 335 bng 15 250 50 0 empty empty empty 17 7 0 10 -262144
-1 -1;
#X floatatom 260 375 5 0 0 0 - - -;
#X obj 260 415 s \$0-loopsize;
#X obj 260 251 r \$0-startrec;
#X obj 287 292 r \$0-stoprec;
#X obj 260 394 * 44.1;
#X text 261 233 Manual loopsize:;
#X obj 311 325 cnv 15 130 87 empty empty empty 20 12 0 14 -262130 -66577
0;
#X obj 313 394 tabwrite~ \$0-loop;
#X text 259 432 send duration of loop in samples;
#X obj 430 149 cnv 15 118 75 empty empty empty 20 12 0 14 -233017 -66577
0;
#X text 433 148 output:;
#N canvas 421 246 491 428 recordinglogic 0;
#X obj -134 137 mtl/doubleclick;
#X obj -134 72 bng 15 250 50 0 empty empty empty 17 7 0 10 -262144
-1 -1;
#X msg 1 333 start;
#X msg -17 373 stop;
#X obj -17 230 f;
#X obj 9 230 + 1;
#X msg -2 210 1;
#X obj -17 251 mod 2;
#X floatatom -17 271 5 0 0 0 - - -;
#X obj -17 314 bng 15 250 50 0 empty empty empty 17 7 0 10 -262144
-1 -1;
#X obj 2 314 bng 15 250 50 0 empty empty empty 17 7 0 10 -262144 -1
-1;
#X obj -17 290 sel 0 1;
#X msg 16 111 start;
#X obj 16 130 bng 15 250 50 0 empty empty empty 17 7 0 10 -262144 -1
-1;
#X obj -17 393 s \$0-stoprec;
#X obj -100 245 r \$0-stoprec;
#X obj -17 91 gate 2;
#X msg -134 265 1;
#X msg -100 265 2;
#X obj -134 222 loadbang;
#X obj -134 181 s \$0-reset;
#X obj -134 159 bng 15 250 50 0 empty empty empty 17 7 0 10 -262144
-1 -1;
#X obj -134 201 r \$0-reset;
#X obj -2 170 r \$0-reset;
#X obj -134 92 t b b;
#X obj -2 190 loadbang;
#X obj -17 49 r \$0-gatenumber;
#X obj -134 292 s \$0-gatenumber;
#X obj -107 114 s \$0-togate;
#X obj 16 70 r \$0-togate;
#X obj 16 148 s \$0-startrec;
#X obj 1 353 s \$0-startrec;
#X obj -134 49 inlet;
#X connect 0 0 21 0;
#X connect 1 0 24 0;
#X connect 2 0 31 0;
#X connect 3 0 14 0;
#X connect 4 0 5 0;
#X connect 4 0 7 0;
#X connect 5 0 4 1;
#X connect 6 0 4 1;
#X connect 7 0 8 0;
#X connect 8 0 11 0;
#X connect 9 0 3 0;
#X connect 10 0 2 0;
#X connect 11 0 9 0;
#X connect 11 1 10 0;
#X connect 12 0 13 0;
#X connect 13 0 30 0;
#X connect 15 0 18 0;
#X connect 16 0 4 0;
#X connect 16 1 12 0;
#X connect 17 0 27 0;
#X connect 18 0 27 0;
#X connect 19 0 17 0;
#X connect 21 0 20 0;
#X connect 22 0 19 0;
#X connect 23 0 25 0;
#X connect 24 0 0 0;
#X connect 24 1 28 0;
#X connect 25 0 6 0;
#X connect 26 0 16 0;
#X connect 29 0 16 1;
#X connect 32 0 1 0;
#X restore 146 271 pd recordinglogic;
#X obj 146 251 r \$0-rec;
#X obj 236 121 r \$0-reset;
#X obj 315 374 +~;
#X obj 330 355 catch~ \$0-audioin;
#X text 319 322 Recording;
#X msg 287 313 stop;
#X obj 315 337 r~ \$0-audioout;
#X obj 302 675 s~ \$0-audioout;
#X obj 433 165 r~ \$0-audioout;
#X obj 433 205 outlet~;
#X obj 433 185 *~ 0.1;
#X obj 158 494 r \$0-stoprec;
#X obj 158 515 bng 15 250 50 0 empty empty empty 17 7 0 10 -262144
-1 -1;
#X obj 158 533 s \$0-startplay;
#X obj 158 590 s \$0-stopplay;
#X obj 158 552 r \$0-reset;
#X obj 158 572 bng 15 250 50 0 empty empty empty 17 7 0 10 -262144
-1 -1;
#X text 430 30 Recording manual mode \; - Press once the button to
start recording \; - Press it twice to stop recording. \; This second
press will define the length of the loop \; and will also trigger the
playback of the loop. \; You can add more layers to the loop by pressing
the button again. \; - Double click will reset the loop.;
#X obj 11 379 r \$0-startrec;
#X obj 11 560 tgl 15 0 empty empty empty 17 7 0 10 -262144 -1 -1 0
1;
#X obj 29 400 r \$0-stoprec;
#X obj 11 578 metro 300;
#X obj 56 487 r \$0-loopsize;
#X obj 56 508 / 44.1;
#X obj 41 527 del;
#X obj 11 421 bng 15 250 50 0 empty empty empty 17 7 0 10 -262144 -1
-1;
#X obj 29 421 bng 15 250 50 0 empty empty empty 17 7 0 10 -262144 -1
-1;
#X obj 41 467 spigot;
#X obj 74 449 tgl 15 0 empty empty empty 17 7 0 10 -262144 -1 -1 1
1;
#X obj 11 599 s \$0-led;
#X obj 57 117 bng 15 250 50 0 empty empty empty 17 7 0 10 -262144 -258113
-1;
#X obj 87 74 r \$0-led;
#X text 46 134 LOOPER;
#X connect 0 0 7 0;
#X connect 1 0 4 0;
#X connect 2 0 3 0;
#X connect 9 0 72 0;
#X connect 10 0 26 0;
#X connect 11 0 12 0;
#X connect 12 0 9 0;
#X connect 13 0 10 0;
#X connect 14 0 28 0;
#X connect 15 0 17 0;
#X connect 16 0 15 0;
#X connect 17 0 18 0;
#X connect 18 0 20 0;
#X connect 20 0 19 0;
#X connect 21 0 20 1;
#X connect 22 0 27 0;
#X connect 22 0 10 0;
#X connect 24 0 13 0;
#X connect 25 0 12 1;
#X connect 26 0 11 0;
#X connect 27 0 26 1;
#X connect 28 0 26 1;
#X connect 28 0 11 0;
#X connect 29 0 30 0;
#X connect 30 0 28 0;
#X connect 32 0 35 0;
#X connect 33 0 34 0;
#X connect 35 0 33 0;
#X connect 40 0 39 0;
#X connect 42 0 43 0;
#X connect 43 0 44 0;
#X connect 44 0 45 0;
#X connect 49 0 51 0;
#X connect 49 0 60 0;
#X connect 50 0 53 0;
#X connect 51 0 50 0;
#X connect 52 0 50 1;
#X connect 53 0 57 0;
#X connect 55 0 49 0;
#X connect 56 0 70 0;
#X connect 57 0 54 0;
#X connect 65 0 64 0;
#X connect 66 0 40 0;
#X connect 66 0 35 0;
#X connect 67 0 60 0;
#X connect 68 0 67 1;
#X connect 70 0 52 0;
#X connect 71 0 67 0;
#X connect 73 0 75 0;
#X connect 75 0 74 0;
#X connect 76 0 77 0;
#X connect 77 0 78 0;
#X connect 80 0 81 0;
#X connect 81 0 79 0;
#X connect 83 0 90 0;
#X connect 84 0 86 0;
#X connect 85 0 91 0;
#X connect 86 0 94 0;
#X connect 87 0 88 0;
#X connect 88 0 89 1;
#X connect 89 0 84 0;
#X connect 90 0 84 0;
#X connect 90 0 92 0;
#X connect 91 0 84 0;
#X connect 91 0 93 0;
#X connect 92 0 89 0;
#X connect 93 0 92 1;
#X connect 96 0 95 0;
#X coords 0 -1 1 1 130 105 2 0 100;
