#N canvas 29 82 1198 527 10;
#X obj 405 307 tabwrite~ \$0-loop;
#X obj 939 429 tabread4~ \$0-loop;
#X obj 132 17 inlet bar;
#X obj 202 17 inlet beat;
#X obj 272 17 inlet measurelength;
#X obj 399 17 inlet start record;
#X obj 399 39 tgl 15 0 empty empty empty 17 7 0 10 -262144 -1 -1 0
1;
#X obj 487 235 delay 1;
#X obj 366 148 spigot;
#X obj 366 169 % 4;
#X obj 366 189 moses 1;
#X obj 405 210 moses 2;
#X obj 405 231 bng 15 250 50 0 empty empty empty 17 7 0 10 -262144
-1 -1;
#X floatatom 132 39 5 0 0 0 - - -;
#X floatatom 202 39 5 0 0 0 - - -;
#X floatatom 272 39 5 0 0 0 - - -;
#X obj 216 174 spigot;
#X obj 216 196 int;
#X floatatom 216 217 5 0 0 0 - - -;
#X obj 216 256 + 4;
#X obj 216 284 % 4;
#X floatatom 216 305 5 0 0 0 - - -;
#X obj 132 345 select;
#X obj 132 194 % 4;
#X floatatom 939 211 10 0 0 0 - - -;
#X obj 939 315 phasor~;
#X obj 939 356 *~;
#X obj 954 336 r \$0-loopsize;
#X obj 1096 48 s \$0-loopsize;
#X obj 939 124 r \$0-loopsize;
#X msg 978 294 0;
#X obj 939 449 *~ 0.1;
#X msg 945 294 0;
#X obj 939 145 expr 44100 / $f1;
#X floatatom 132 216 5 0 0 0 - - -;
#X obj 132 366 bng 15 250 50 0 empty empty empty 17 7 0 10 -262144
-1 -1;
#X obj 921 173 bng 15 250 50 0 empty empty empty 17 7 0 10 -262144
-1 -1;
#X obj 821 45 tgl 15 0 empty empty empty 17 7 0 10 -262144 -1 -1 0
1;
#X obj 821 17 inlet start play;
#X obj 140 256 s \$0-toplay;
#X obj 788 72 r \$0-toplay;
#X obj 788 109 spigot;
#X obj 910 86 delay 1;
#X obj 1096 8 loadbang;
#X obj 945 232 loadbang;
#X obj 945 253 delay 1;
#X obj 939 470 outlet~;
#X obj 132 384 s \$0-restartloop;
#X obj 978 273 r \$0-restartloop;
#X obj 272 59 s \$0-ml;
#X obj 246 238 r \$0-ml;
#X obj 147 173 r \$0-ml;
#X msg 1028 48 resize \$1;
#X obj 1028 68 s \$0-loop;
#X msg 1096 28 441000;
#X obj 405 326 table \$0-loop;
#X text 1140 29 10 sec;
#X obj 426 279 catch~ audioin;
#X obj 27 19 inlet~ audioin;
#X obj 27 40 throw~ audioin;
#X text 419 188 Start recording when beat is 1;
#X obj 399 58 s \$0-startrec;
#X obj 399 125 r \$0-startrec;
#X obj 249 152 r \$0-startrec;
#X connect 1 0 31 0;
#X connect 2 0 13 0;
#X connect 3 0 14 0;
#X connect 4 0 15 0;
#X connect 5 0 6 0;
#X connect 6 0 61 0;
#X connect 7 0 6 0;
#X connect 8 0 9 0;
#X connect 9 0 10 0;
#X connect 10 1 11 0;
#X connect 11 0 12 0;
#X connect 12 0 7 0;
#X connect 12 0 0 0;
#X connect 13 0 16 0;
#X connect 13 0 23 0;
#X connect 14 0 8 0;
#X connect 15 0 49 0;
#X connect 16 0 17 0;
#X connect 17 0 18 0;
#X connect 18 0 19 0;
#X connect 19 0 20 0;
#X connect 20 0 21 0;
#X connect 21 0 22 1;
#X connect 22 0 35 0;
#X connect 23 0 34 0;
#X connect 24 0 25 0;
#X connect 25 0 26 0;
#X connect 26 0 1 0;
#X connect 27 0 26 1;
#X connect 29 0 33 0;
#X connect 30 0 25 1;
#X connect 31 0 46 0;
#X connect 32 0 25 0;
#X connect 33 0 24 0;
#X connect 34 0 22 0;
#X connect 34 0 39 0;
#X connect 35 0 47 0;
#X connect 36 0 24 0;
#X connect 37 0 41 1;
#X connect 38 0 37 0;
#X connect 40 0 41 0;
#X connect 41 0 36 0;
#X connect 41 0 42 0;
#X connect 42 0 37 0;
#X connect 43 0 54 0;
#X connect 44 0 45 0;
#X connect 45 0 32 0;
#X connect 48 0 30 0;
#X connect 50 0 20 1;
#X connect 50 0 19 1;
#X connect 51 0 23 1;
#X connect 52 0 53 0;
#X connect 54 0 28 0;
#X connect 54 0 52 0;
#X connect 57 0 0 0;
#X connect 58 0 59 0;
#X connect 62 0 8 1;
#X connect 63 0 16 1;
