#N canvas 273 23 832 751 10;
#X obj -12 -23 inlet~ audioin;
#X obj 102 -23 inlet start/stop recording;
#X obj 50 116 bng 30 250 50 0 empty empty rec/stop -10 38 0 10 -262144
-1 -1;
#X obj 4 225 s \$0-rec;
#X obj 102 -2 s \$0-rec;
#X text 2 100 input~;
#X text 56 99 rec;
#X obj -12 -2 throw~ \$0-audioin;
#X floatatom 8 165 5 0 0 1 bpm - -;
#X floatatom 8 185 5 0 0 1 bars - -;
#X obj 73 165 vradio 15 1 0 2 empty empty empty 0 -8 0 10 -262144 -1
-1 0;
#X text 90 164 manual;
#X text 90 179 auto;
#X obj -6 245 s \$0-bpm;
#X obj -6 265 s \$0-bars;
#X obj 73 215 s \$0-mode;
#X obj 50 77 r \$0-autostop;
#X obj 141 458 cnv 15 440 260 empty empty empty 20 12 0 14 -233017
-66577 0;
#X obj 302 654 tabread4~ \$0-loop;
#X floatatom 302 501 10 0 0 0 - - -;
#X obj 302 590 phasor~;
#X obj 302 631 *~;
#X obj 302 481 expr 44100 / $f1;
#X obj 386 520 r \$0-stopplay;
#X obj 445 598 metro 100;
#X obj 445 580 tgl 15 0 empty empty empty 17 7 0 10 -262144 -1 -1 0
1;
#X obj 445 621 snapshot~;
#X floatatom 445 642 10 0 0 0 - - -;
#X obj 448 689 hsl 128 15 0 1 0 0 empty empty empty -2 -8 0 10 -262144
-1 -1 0 1;
#X obj 445 667 /;
#X msg 478 667 441000;
#X obj 386 501 r \$0-startplay;
#X text 153 458 playback:;
#X obj 302 460 r \$0-loopsize;
#X obj 317 611 r \$0-loopsize;
#X obj 302 552 spigot;
#X msg 335 530 1;
#X msg 386 541 0;
#X obj 479 499 loadbang;
#X obj 479 520 delay 1;
#X obj 141 100 cnv 15 190 123 empty empty empty 20 12 0 14 -233017
-66577 0;
#X obj 149 123 loadbang;
#X msg 149 163 resize \$1;
#X obj 149 183 s \$0-loop;
#X msg 149 143 441000;
#X obj 149 204 table \$0-loop;
#X text 193 143 10 sec;
#X text 147 101 Initialize loop array:;
#X msg 236 161 \; \$1 const 0;
#X obj 236 141 symbol \$0-loop;
#X obj 335 100 cnv 15 90 95 empty empty empty 20 12 0 14 -233017 -66577
0;
#X obj 339 116 r \$0-loopsize;
#X floatatom 339 136 10 0 0 0 - - -;
#X msg 339 155 resize \$1;
#X obj 339 175 s \$0-loop;
#X text 338 98 Resize loop:;
#X obj 141 232 cnv 15 550 218 empty empty empty 20 12 0 14 -233017
-66577 0;
#X text 145 229 recording:;
#X msg 260 271 start;
#X obj 260 354 timer;
#X obj 260 335 bng 15 250 50 0 empty empty empty 17 7 0 10 -262144
-1 -1;
#X obj 287 335 bng 15 250 50 0 empty empty empty 17 7 0 10 -262144
-1 -1;
#X floatatom 260 375 5 0 0 0 - - -;
#X obj 260 415 s \$0-loopsize;
#X obj 260 251 r \$0-startrec;
#X obj 287 292 r \$0-stoprec;
#X obj 260 394 * 44.1;
#X obj 448 274 r \$0-bpm;
#X obj 448 295 expr 60/ $f1;
#X obj 448 316 * 4;
#X text 473 316 4 beats;
#X obj 455 336 r \$0-bars;
#X obj 455 356 t b f;
#X obj 448 376 *;
#X text 443 240 Automatic loopsize:;
#X text 444 255 Compute time with bpm and number of bars;
#X obj 448 396 * 44100;
#X obj 448 417 s \$0-loopsize;
#X obj 563 274 r \$0-startrec;
#X obj 563 295 bng 15 250 50 0 empty empty empty 17 7 0 10 -262144
-1 -1;
#X obj 596 294 r \$0-mode;
#X obj 563 398 s \$0-autostop;
#X obj 563 377 delay;
#X obj 563 315 spigot;
#X obj 590 336 r \$0-loopsize;
#X obj 590 356 / 44.1;
#X text 261 233 Manual loopsize:;
#X obj 311 325 cnv 15 130 87 empty empty empty 20 12 0 14 -262130 -66577
0;
#X obj 313 394 tabwrite~ \$0-loop;
#X text 562 414 send to rec bang;
#X text 259 432 send duration of loop in samples;
#X obj 430 149 cnv 15 118 75 empty empty empty 20 12 0 14 -233017 -66577
0;
#X text 433 148 output:;
#N canvas 29 305 491 428 recordinglogic 0;
#X obj -134 137 mtl/doubleclick;
#X obj -134 72 bng 15 250 50 0 empty empty empty 17 7 0 10 -262144
-1 -1;
#X msg 1 333 start;
#X msg -17 373 stop;
#X obj -17 230 f;
#X obj 9 230 + 1;
#X msg -2 210 1;
#X obj -17 251 mod 2;
#X floatatom -17 271 5 0 0 0 - - -;
#X obj -17 314 bng 15 250 50 0 empty empty empty 17 7 0 10 -262144
-1 -1;
#X obj 2 314 bng 15 250 50 0 empty empty empty 17 7 0 10 -262144 -1
-1;
#X obj -17 290 sel 0 1;
#X msg 16 111 start;
#X obj 16 130 bng 15 250 50 0 empty empty empty 17 7 0 10 -262144 -1
-1;
#X obj -17 393 s \$0-stoprec;
#X obj -100 245 r \$0-stoprec;
#X obj -17 91 gate 2;
#X msg -134 265 1;
#X msg -100 265 2;
#X obj -134 222 loadbang;
#X obj -134 181 s \$0-reset;
#X obj -134 159 bng 15 250 50 0 empty empty empty 17 7 0 10 -262144
-1 -1;
#X obj -134 201 r \$0-reset;
#X obj -2 170 r \$0-reset;
#X obj -134 92 t b b;
#X obj -2 190 loadbang;
#X obj -17 49 r \$0-gatenumber;
#X obj -134 292 s \$0-gatenumber;
#X obj -107 114 s \$0-togate;
#X obj 16 70 r \$0-togate;
#X obj 16 148 s \$0-startrec;
#X obj 1 353 s \$0-startrec;
#X obj -134 49 inlet;
#X connect 0 0 21 0;
#X connect 1 0 24 0;
#X connect 2 0 31 0;
#X connect 3 0 14 0;
#X connect 4 0 5 0;
#X connect 4 0 7 0;
#X connect 5 0 4 1;
#X connect 6 0 4 1;
#X connect 7 0 8 0;
#X connect 8 0 11 0;
#X connect 9 0 3 0;
#X connect 10 0 2 0;
#X connect 11 0 9 0;
#X connect 11 1 10 0;
#X connect 12 0 13 0;
#X connect 13 0 30 0;
#X connect 15 0 18 0;
#X connect 16 0 4 0;
#X connect 16 1 12 0;
#X connect 17 0 27 0;
#X connect 18 0 27 0;
#X connect 19 0 17 0;
#X connect 21 0 20 0;
#X connect 22 0 19 0;
#X connect 23 0 25 0;
#X connect 24 0 0 0;
#X connect 24 1 28 0;
#X connect 25 0 6 0;
#X connect 26 0 16 0;
#X connect 29 0 16 1;
#X connect 32 0 1 0;
#X restore 146 271 pd recordinglogic;
#X obj 146 251 r \$0-rec;
#X obj 236 121 r \$0-reset;
#X obj 315 374 +~;
#X obj 330 355 catch~ \$0-audioin;
#X text 319 322 Recording;
#X msg 287 313 stop;
#X obj 315 337 r~ \$0-audioout;
#X obj 302 675 s~ \$0-audioout;
#X obj 433 165 r~ \$0-audioout;
#X obj 433 205 outlet~;
#X obj 433 185 *~ 0.1;
#X obj 158 494 r \$0-stoprec;
#X obj 158 515 bng 15 250 50 0 empty empty empty 17 7 0 10 -262144
-1 -1;
#X obj 158 533 s \$0-startplay;
#X obj 158 590 s \$0-stopplay;
#X obj 158 552 r \$0-reset;
#X obj 158 572 bng 15 250 50 0 empty empty empty 17 7 0 10 -262144
-1 -1;
#X text 430 -10 Recording manual mode \; - Press once the button to
start recording \; - Press it twice to stop recording. \; This second
press will define the length of the loop \; and will also trigger the
playback of the loop. \; You can add more layers to the loop by pressing
the button again. \; - Double click will reset the loop.;
#X text 430 96 Recording automatic mode \; set bpm and bars for the
duration of loop \; then press once the left bang to start recording
\;;
#X connect 0 0 7 0;
#X connect 1 0 4 0;
#X connect 2 0 3 0;
#X connect 8 0 13 0;
#X connect 9 0 14 0;
#X connect 10 0 15 0;
#X connect 16 0 2 0;
#X connect 18 0 101 0;
#X connect 19 0 35 0;
#X connect 20 0 21 0;
#X connect 21 0 18 0;
#X connect 22 0 19 0;
#X connect 23 0 37 0;
#X connect 24 0 26 0;
#X connect 25 0 24 0;
#X connect 26 0 27 0;
#X connect 27 0 29 0;
#X connect 29 0 28 0;
#X connect 30 0 29 1;
#X connect 31 0 36 0;
#X connect 31 0 19 0;
#X connect 33 0 22 0;
#X connect 34 0 21 1;
#X connect 35 0 20 0;
#X connect 36 0 35 1;
#X connect 37 0 35 1;
#X connect 37 0 20 0;
#X connect 38 0 39 0;
#X connect 39 0 37 0;
#X connect 41 0 44 0;
#X connect 42 0 43 0;
#X connect 44 0 42 0;
#X connect 49 0 48 0;
#X connect 51 0 52 0;
#X connect 52 0 53 0;
#X connect 53 0 54 0;
#X connect 58 0 60 0;
#X connect 58 0 88 0;
#X connect 59 0 62 0;
#X connect 60 0 59 0;
#X connect 61 0 59 1;
#X connect 62 0 66 0;
#X connect 64 0 58 0;
#X connect 65 0 99 0;
#X connect 66 0 63 0;
#X connect 67 0 68 0;
#X connect 68 0 69 0;
#X connect 69 0 73 0;
#X connect 71 0 72 0;
#X connect 72 0 73 0;
#X connect 72 1 73 1;
#X connect 73 0 76 0;
#X connect 76 0 77 0;
#X connect 78 0 79 0;
#X connect 79 0 83 0;
#X connect 80 0 83 1;
#X connect 82 0 81 0;
#X connect 83 0 82 0;
#X connect 84 0 85 0;
#X connect 85 0 82 1;
#X connect 94 0 93 0;
#X connect 95 0 49 0;
#X connect 95 0 44 0;
#X connect 96 0 88 0;
#X connect 97 0 96 1;
#X connect 99 0 61 0;
#X connect 100 0 96 0;
#X connect 102 0 104 0;
#X connect 104 0 103 0;
#X connect 105 0 106 0;
#X connect 106 0 107 0;
#X connect 109 0 110 0;
#X connect 110 0 108 0;
#X coords 0 -1 1 1 130 105 2 0 100;
