#N canvas 138 23 965 728 10;
#X obj 183 419 tabwrite~ \$0-loop;
#X obj 666 413 tabread4~ \$0-loop;
#X floatatom 666 245 10 0 0 0 - - -;
#X obj 666 349 phasor~;
#X obj 666 390 *~;
#X msg 705 328 0;
#X obj 666 433 *~ 0.1;
#X msg 672 328 0;
#X obj 666 223 expr 44100 / $f1;
#X obj 648 225 bng 15 250 50 0 empty empty empty 17 7 0 10 -262144
-1 -1;
#X obj 340 154 loadbang;
#X obj 672 266 loadbang;
#X obj 672 287 delay 1;
#X obj 705 307 r \$0-restartloop;
#X msg 272 194 resize \$1;
#X obj 272 214 s \$0-loop;
#X msg 340 174 441000;
#X obj 340 215 table \$0-loop;
#X text 384 175 10 sec;
#X obj -12 27 inlet~ audioin;
#X text 275 134 Initialize loop array:;
#X obj 444 27 s \$0-ml;
#X text 438 44 measure length;
#X obj 721 287 r \$0-stopplay;
#X obj 809 357 metro 100;
#X obj 809 339 tgl 15 0 empty empty empty 17 7 0 10 -262144 -1 -1 0
1;
#X obj 809 380 snapshot~;
#X floatatom 809 401 10 0 0 0 - - -;
#X obj 812 448 hsl 128 15 0 1 0 0 empty empty empty -2 -8 0 10 -262144
-1 -1 0 1;
#X obj 809 426 /;
#X msg 842 426 441000;
#X msg 130 336 start;
#X msg 157 378 stop;
#X obj 130 419 timer;
#X obj 130 400 bng 15 250 50 0 empty empty empty 17 7 0 10 -262144
-1 -1;
#X obj 157 400 bng 15 250 50 0 empty empty empty 17 7 0 10 -262144
-1 -1;
#X floatatom 130 440 5 0 0 0 - - -;
#X obj 340 194 s \$0-arraysize;
#X obj 666 202 r \$0-arraysize;
#X obj 467 438 s \$0-restartloop;
#X obj 467 417 delay;
#X obj 681 370 r \$0-arraysize;
#X obj 564 399 bng 15 250 50 0 empty empty empty 17 7 0 10 -262144
-1 -1;
#X obj 564 417 spigot;
#X obj 597 399 tgl 15 0 empty empty empty 17 7 0 10 -262144 -1 -1 0
1;
#X obj 0 356 counter;
#X floatatom 0 377 10 0 0 0 - - -;
#X obj -1 398 bng 15 250 50 0 empty empty empty 17 7 0 10 -262144 -1
-1;
#X obj 0 397 mod 2;
#X floatatom 0 418 5 0 0 0 - - -;
#X obj 0 439 sel 0 1;
#X obj 19 338 bng 15 250 50 0 empty empty empty 17 7 0 10 -262144 -1
-1;
#X obj 349 330 counter;
#X floatatom 349 351 10 0 0 0 - - -;
#X obj 349 312 bng 15 250 50 0 empty empty empty 17 7 0 10 -262144
-1 -1;
#X obj 349 371 mod 2;
#X floatatom 349 392 5 0 0 0 - - -;
#X obj 349 413 sel 0 1;
#X obj 368 312 bng 15 250 50 0 empty empty empty 17 7 0 10 -262144
-1 -1;
#X obj 102 27 inlet start/stop recording;
#X obj 272 27 inlet start/stop playback;
#X obj 114 116 bng 30 250 50 0 empty empty rec/stop -10 38 0 10 -262144
-1 -1;
#X obj 174 116 bng 30 250 50 0 empty empty play/stop -10 38 0 10 -262144
-1 -1;
#X obj 84 225 s \$0-rec;
#X obj 102 48 s \$0-rec;
#X obj 272 48 s \$0-play;
#X obj 156 225 s \$0-play;
#X obj 0 315 r \$0-rec;
#X obj 349 289 r \$0-play;
#X obj 130 460 s \$0-loopsize;
#X obj 494 364 r \$0-loopsize;
#X obj 19 460 s \$0-startrec;
#X obj 0 667 s \$0-stoprec;
#X obj 130 316 r \$0-startrec;
#X obj 157 357 r \$0-stoprec;
#X obj 368 433 s \$0-startplay;
#X obj 349 453 s \$0-stopplay;
#X obj 648 180 r \$0-startplay;
#X obj 666 454 outlet~;
#X obj 597 377 r \$0-play;
#X text 102 100 input~;
#X text 156 99 rec;
#X text 192 99 play;
#X obj 467 345 r \$0-startplay;
#X text -3 291 recording:;
#X text 347 263 playback:;
#X text 129 477 duration of loop in seconds;
#X text 551 16 Recording and playback are triggered by bangs \; To
record \, press once the left bang \; press it again to stop recording
\; The same for playback.;
#X text 347 478 The recording will be looped using a [delay] object
with a feedback. The output of [delay] will set [phasor~]'s phase to
0;
#X obj -12 48 throw~ \$0-audioin;
#X obj 189 399 catch~ \$0-audioin;
#X obj 388 310 s \$0-restartloop;
#X floatatom 108 165 5 0 0 1 bpm - -;
#X floatatom 108 185 5 0 0 1 bars - -;
#X obj 173 165 vradio 15 1 0 2 empty empty empty 0 -8 0 10 -262144
-1 -1 0;
#X text 190 164 manual;
#X text 190 179 auto;
#X obj 84 245 s \$0-bpm;
#X obj 84 265 s \$0-bars;
#X obj 156 245 s \$0-mode;
#X obj 133 564 r \$0-bpm;
#X obj 133 585 expr 60/ $f1;
#X obj 133 606 * 4;
#X text 158 606 4 beats;
#X obj 140 626 r \$0-bars;
#X obj 140 646 t b f;
#X obj 133 666 *;
#X obj 133 686 * 1000;
#X obj 133 707 s \$0-autosize;
#X obj 240 581 r \$0-startrec;
#X obj 240 601 bng 15 250 50 0 empty empty empty 17 7 0 10 -262144
-1 -1;
#X obj 273 601 r \$0-mode;
#X obj 240 621 spigot;
#X obj 240 661 delay;
#X obj 267 641 r \$0-autosize;
#X obj 240 681 s \$0-autostop;
#X obj 114 77 r \$0-autostop;
#X text 7 525 Compute loopsize;
#X text 8 540 Manual size \; with second bang;
#X text 128 522 Automatic loopsize:;
#X text 129 537 Compute time with bpm and number of bars;
#X connect 1 0 6 0;
#X connect 2 0 3 0;
#X connect 3 0 4 0;
#X connect 4 0 1 0;
#X connect 5 0 3 1;
#X connect 6 0 78 0;
#X connect 7 0 3 0;
#X connect 8 0 2 0;
#X connect 9 0 2 0;
#X connect 10 0 16 0;
#X connect 11 0 12 0;
#X connect 12 0 7 0;
#X connect 13 0 5 0;
#X connect 14 0 15 0;
#X connect 16 0 14 0;
#X connect 16 0 37 0;
#X connect 19 0 89 0;
#X connect 23 0 7 0;
#X connect 24 0 26 0;
#X connect 25 0 24 0;
#X connect 26 0 27 0;
#X connect 27 0 29 0;
#X connect 29 0 28 0;
#X connect 30 0 29 1;
#X connect 31 0 34 0;
#X connect 31 0 0 0;
#X connect 32 0 35 0;
#X connect 32 0 0 0;
#X connect 33 0 36 0;
#X connect 34 0 33 0;
#X connect 35 0 33 1;
#X connect 36 0 69 0;
#X connect 38 0 8 0;
#X connect 40 0 39 0;
#X connect 40 0 42 0;
#X connect 41 0 4 1;
#X connect 42 0 43 0;
#X connect 43 0 40 0;
#X connect 44 0 43 1;
#X connect 45 0 46 0;
#X connect 46 0 48 0;
#X connect 47 0 45 0;
#X connect 48 0 49 0;
#X connect 49 0 50 0;
#X connect 50 0 72 0;
#X connect 50 1 71 0;
#X connect 51 0 45 2;
#X connect 52 0 53 0;
#X connect 53 0 55 0;
#X connect 54 0 52 0;
#X connect 55 0 56 0;
#X connect 56 0 57 0;
#X connect 57 0 76 0;
#X connect 57 1 75 0;
#X connect 58 0 52 2;
#X connect 59 0 64 0;
#X connect 60 0 65 0;
#X connect 61 0 63 0;
#X connect 62 0 66 0;
#X connect 67 0 47 0;
#X connect 68 0 54 0;
#X connect 68 0 91 0;
#X connect 70 0 40 1;
#X connect 73 0 31 0;
#X connect 74 0 32 0;
#X connect 77 0 9 0;
#X connect 79 0 44 0;
#X connect 83 0 40 0;
#X connect 90 0 0 0;
#X connect 92 0 97 0;
#X connect 93 0 98 0;
#X connect 94 0 99 0;
#X connect 100 0 101 0;
#X connect 101 0 102 0;
#X connect 102 0 106 0;
#X connect 104 0 105 0;
#X connect 105 0 106 0;
#X connect 105 1 106 1;
#X connect 106 0 107 0;
#X connect 107 0 108 0;
#X connect 109 0 110 0;
#X connect 110 0 112 0;
#X connect 111 0 112 1;
#X connect 112 0 113 0;
#X connect 113 0 115 0;
#X connect 114 0 113 1;
#X connect 116 0 61 0;
#X coords 0 -1 1 1 130 105 2 100 100;
