#N canvas 155 100 407 496 10;
#X msg 43 232 reset;
#X floatatom 103 118 5 0 0 0 - - -;
#X text 102 100 BPM;
#X floatatom 145 118 5 0 0 0 - - -;
#X text 132 100 Beats/bar;
#X msg 103 197 start;
#X msg 145 197 stop;
#X text 102 135 beat;
#X text 231 135 bar;
#X obj 103 282 cmetronome-1 50 4 3 2;
#X floatatom 195 238 5 0 0 0 - - -;
#X floatatom 226 259 5 0 0 0 - - -;
#X text 228 237 Sub-beats/bar;
#X text 263 260 Ticks/sub-beat;
#X floatatom 103 306 5 0 0 0 - - -;
#X floatatom 144 337 5 0 0 0 - - -;
#X floatatom 185 364 5 0 0 0 - - -;
#X floatatom 226 328 5 0 0 0 - - -;
#X text 72 304 Tick;
#X text 88 334 Sub-Beat;
#X text 154 360 Beat;
#X text 200 327 Bar;
#X obj 226 347 + 1;
#X obj 185 383 + 1;
#X obj 185 403 outlet beat;
#X obj 226 367 outlet bar;
#X obj 201 119 bng 15 250 50 0 empty empty empty 17 7 0 10 -262144
-1 -1;
#X text 192 101 START;
#X obj 235 119 bng 15 250 50 0 empty empty empty 17 7 0 10 -262144
-1 -1;
#X text 230 102 STOP;
#X connect 0 0 9 0;
#X connect 1 0 9 1;
#X connect 3 0 9 2;
#X connect 5 0 9 0;
#X connect 6 0 9 0;
#X connect 6 0 0 0;
#X connect 9 0 14 0;
#X connect 9 1 15 0;
#X connect 9 2 16 0;
#X connect 9 3 17 0;
#X connect 10 0 9 3;
#X connect 11 0 9 4;
#X connect 16 0 23 0;
#X connect 17 0 22 0;
#X connect 22 0 25 0;
#X connect 23 0 24 0;
#X connect 26 0 5 0;
#X connect 28 0 6 0;
#X coords 0 -1 1 1 160 50 2 100 100;
